# MagicaVoxel @ Ephtracy

# material
mtllib Wheel Normal.mtl
usemtl palette

# normals
vn -1 0 0
vn 1 0 0
vn 0 0 1
vn 0 0 -1
vn 0 -1 0
vn 0 1 0

# texcoords
vt 0.970703 0.5
vt 0.986328 0.5

# verts
v -4 1 3
v -4 1 -3
v -4 2 4
v -4 2 3
v -4 2 -3
v -4 2 -4
v -4 3 5
v -4 3 4
v -4 3 -4
v -4 3 -5
v -4 4 6
v -4 4 5
v -4 4 -5
v -4 4 -6
v -4 5 7
v -4 5 6
v -4 5 -6
v -4 5 -7
v -4 7 1
v -4 7 -1
v -4 9 1
v -4 9 -1
v -4 11 7
v -4 11 6
v -4 11 -6
v -4 11 -7
v -4 12 6
v -4 12 5
v -4 12 -5
v -4 12 -6
v -4 13 5
v -4 13 4
v -4 13 -4
v -4 13 -5
v -4 14 4
v -4 14 3
v -4 14 -3
v -4 14 -4
v -4 15 3
v -4 15 -3
v -3 0 3
v -3 0 -3
v -3 1 5
v -3 1 3
v -3 1 -3
v -3 1 -5
v -3 2 6
v -3 2 5
v -3 2 4
v -3 2 3
v -3 2 -3
v -3 2 -4
v -3 2 -5
v -3 2 -6
v -3 3 7
v -3 3 6
v -3 3 5
v -3 3 4
v -3 3 -4
v -3 3 -5
v -3 3 -6
v -3 3 -7
v -3 4 6
v -3 4 5
v -3 4 -5
v -3 4 -6
v -3 5 8
v -3 5 7
v -3 5 6
v -3 5 -6
v -3 5 -7
v -3 5 -8
v -3 11 8
v -3 11 7
v -3 11 6
v -3 11 -6
v -3 11 -7
v -3 11 -8
v -3 12 6
v -3 12 5
v -3 12 -5
v -3 12 -6
v -3 13 7
v -3 13 6
v -3 13 5
v -3 13 4
v -3 13 -4
v -3 13 -5
v -3 13 -6
v -3 13 -7
v -3 14 6
v -3 14 5
v -3 14 4
v -3 14 3
v -3 14 -3
v -3 14 -4
v -3 14 -5
v -3 14 -6
v -3 15 5
v -3 15 3
v -3 15 -3
v -3 15 -5
v -3 16 3
v -3 16 -3
v 1 7 1
v 1 7 -1
v 1 9 1
v 1 9 -1
v 2 4 2
v 2 4 -2
v 2 5 3
v 2 5 2
v 2 5 -2
v 2 5 -3
v 2 6 4
v 2 6 3
v 2 6 -3
v 2 6 -4
v 2 10 4
v 2 10 3
v 2 10 -3
v 2 10 -4
v 2 11 3
v 2 11 2
v 2 11 -2
v 2 11 -3
v 2 12 2
v 2 12 -2
v 3 0 3
v 3 0 -3
v 3 1 5
v 3 1 3
v 3 1 -3
v 3 1 -5
v 3 2 6
v 3 2 5
v 3 2 4
v 3 2 3
v 3 2 -3
v 3 2 -4
v 3 2 -5
v 3 2 -6
v 3 3 7
v 3 3 6
v 3 3 5
v 3 3 4
v 3 3 2
v 3 3 -2
v 3 3 -4
v 3 3 -5
v 3 3 -6
v 3 3 -7
v 3 4 6
v 3 4 5
v 3 4 4
v 3 4 2
v 3 4 -2
v 3 4 -4
v 3 4 -5
v 3 4 -6
v 3 5 8
v 3 5 7
v 3 5 6
v 3 5 3
v 3 5 2
v 3 5 -2
v 3 5 -3
v 3 5 -6
v 3 5 -7
v 3 5 -8
v 3 6 5
v 3 6 4
v 3 6 3
v 3 6 -3
v 3 6 -4
v 3 6 -5
v 3 10 5
v 3 10 4
v 3 10 3
v 3 10 -3
v 3 10 -4
v 3 10 -5
v 3 11 8
v 3 11 7
v 3 11 6
v 3 11 3
v 3 11 2
v 3 11 -2
v 3 11 -3
v 3 11 -6
v 3 11 -7
v 3 11 -8
v 3 12 6
v 3 12 5
v 3 12 4
v 3 12 2
v 3 12 -2
v 3 12 -4
v 3 12 -5
v 3 12 -6
v 3 13 7
v 3 13 6
v 3 13 5
v 3 13 4
v 3 13 2
v 3 13 -2
v 3 13 -4
v 3 13 -5
v 3 13 -6
v 3 13 -7
v 3 14 6
v 3 14 5
v 3 14 4
v 3 14 3
v 3 14 -3
v 3 14 -4
v 3 14 -5
v 3 14 -6
v 3 15 5
v 3 15 3
v 3 15 -3
v 3 15 -5
v 3 16 3
v 3 16 -3
v 4 1 3
v 4 1 -3
v 4 2 4
v 4 2 3
v 4 2 2
v 4 2 -2
v 4 2 -3
v 4 2 -4
v 4 3 5
v 4 3 4
v 4 3 2
v 4 3 -2
v 4 3 -4
v 4 3 -5
v 4 4 6
v 4 4 5
v 4 4 4
v 4 4 2
v 4 4 -2
v 4 4 -4
v 4 4 -5
v 4 4 -6
v 4 5 7
v 4 5 6
v 4 5 -6
v 4 5 -7
v 4 6 6
v 4 6 5
v 4 6 4
v 4 6 -4
v 4 6 -5
v 4 6 -6
v 4 10 6
v 4 10 5
v 4 10 4
v 4 10 -4
v 4 10 -5
v 4 10 -6
v 4 11 7
v 4 11 6
v 4 11 -6
v 4 11 -7
v 4 12 6
v 4 12 5
v 4 12 4
v 4 12 2
v 4 12 -2
v 4 12 -4
v 4 12 -5
v 4 12 -6
v 4 13 5
v 4 13 4
v 4 13 2
v 4 13 -2
v 4 13 -4
v 4 13 -5
v 4 14 4
v 4 14 3
v 4 14 2
v 4 14 -2
v 4 14 -3
v 4 14 -4
v 4 15 3
v 4 15 -3
v -3 5 8
v -3 11 8
v 3 5 8
v 3 11 8
v -4 5 7
v -4 11 7
v -3 3 7
v -3 5 7
v -3 11 7
v -3 13 7
v 3 3 7
v 3 5 7
v 3 11 7
v 3 13 7
v 4 5 7
v 4 11 7
v -4 4 6
v -4 5 6
v -4 11 6
v -4 12 6
v -3 2 6
v -3 3 6
v -3 4 6
v -3 5 6
v -3 11 6
v -3 12 6
v -3 13 6
v -3 14 6
v 3 2 6
v 3 3 6
v 3 4 6
v 3 5 6
v 3 11 6
v 3 12 6
v 3 13 6
v 3 14 6
v 4 4 6
v 4 5 6
v 4 11 6
v 4 12 6
v -4 3 5
v -4 4 5
v -4 12 5
v -4 13 5
v -3 1 5
v -3 2 5
v -3 3 5
v -3 4 5
v -3 12 5
v -3 13 5
v -3 14 5
v -3 15 5
v 3 1 5
v 3 2 5
v 3 3 5
v 3 4 5
v 3 12 5
v 3 13 5
v 3 14 5
v 3 15 5
v 4 3 5
v 4 4 5
v 4 12 5
v 4 13 5
v -4 2 4
v -4 3 4
v -4 13 4
v -4 14 4
v -3 2 4
v -3 3 4
v -3 13 4
v -3 14 4
v 3 2 4
v 3 3 4
v 3 13 4
v 3 14 4
v 4 2 4
v 4 3 4
v 4 13 4
v 4 14 4
v -4 1 3
v -4 2 3
v -4 14 3
v -4 15 3
v -3 0 3
v -3 1 3
v -3 2 3
v -3 14 3
v -3 15 3
v -3 16 3
v 3 0 3
v 3 1 3
v 3 2 3
v 3 14 3
v 3 15 3
v 3 16 3
v 4 1 3
v 4 2 3
v 4 14 3
v 4 15 3
v -4 7 -1
v -4 9 -1
v -3 7 -1
v -3 9 -1
v -1 7 -1
v -1 9 -1
v 1 7 -1
v 1 9 -1
v 2 4 -2
v 2 5 -2
v 2 11 -2
v 2 12 -2
v 3 3 -2
v 3 4 -2
v 3 5 -2
v 3 11 -2
v 3 12 -2
v 3 13 -2
v 4 3 -2
v 4 4 -2
v 4 12 -2
v 4 13 -2
v 2 5 -3
v 2 6 -3
v 2 10 -3
v 2 11 -3
v 3 5 -3
v 3 6 -3
v 3 10 -3
v 3 11 -3
v 2 6 -4
v 2 10 -4
v 3 4 -4
v 3 6 -4
v 3 10 -4
v 3 12 -4
v 4 4 -4
v 4 6 -4
v 4 10 -4
v 4 12 -4
v 3 6 -5
v 3 10 -5
v 4 6 -5
v 4 10 -5
v 3 6 5
v 3 10 5
v 4 6 5
v 4 10 5
v 2 6 4
v 2 10 4
v 3 4 4
v 3 6 4
v 3 10 4
v 3 12 4
v 4 4 4
v 4 6 4
v 4 10 4
v 4 12 4
v 2 5 3
v 2 6 3
v 2 10 3
v 2 11 3
v 3 5 3
v 3 6 3
v 3 10 3
v 3 11 3
v 2 4 2
v 2 5 2
v 2 11 2
v 2 12 2
v 3 3 2
v 3 4 2
v 3 5 2
v 3 11 2
v 3 12 2
v 3 13 2
v 4 3 2
v 4 4 2
v 4 12 2
v 4 13 2
v -4 7 1
v -4 9 1
v -3 7 1
v -3 9 1
v -1 7 1
v -1 9 1
v 1 7 1
v 1 9 1
v -4 1 -3
v -4 2 -3
v -4 14 -3
v -4 15 -3
v -3 0 -3
v -3 1 -3
v -3 2 -3
v -3 14 -3
v -3 15 -3
v -3 16 -3
v 3 0 -3
v 3 1 -3
v 3 2 -3
v 3 14 -3
v 3 15 -3
v 3 16 -3
v 4 1 -3
v 4 2 -3
v 4 14 -3
v 4 15 -3
v -4 2 -4
v -4 3 -4
v -4 13 -4
v -4 14 -4
v -3 2 -4
v -3 3 -4
v -3 13 -4
v -3 14 -4
v 3 2 -4
v 3 3 -4
v 3 13 -4
v 3 14 -4
v 4 2 -4
v 4 3 -4
v 4 13 -4
v 4 14 -4
v -4 3 -5
v -4 4 -5
v -4 12 -5
v -4 13 -5
v -3 1 -5
v -3 2 -5
v -3 3 -5
v -3 4 -5
v -3 12 -5
v -3 13 -5
v -3 14 -5
v -3 15 -5
v 3 1 -5
v 3 2 -5
v 3 3 -5
v 3 4 -5
v 3 12 -5
v 3 13 -5
v 3 14 -5
v 3 15 -5
v 4 3 -5
v 4 4 -5
v 4 12 -5
v 4 13 -5
v -4 4 -6
v -4 5 -6
v -4 11 -6
v -4 12 -6
v -3 2 -6
v -3 3 -6
v -3 4 -6
v -3 5 -6
v -3 11 -6
v -3 12 -6
v -3 13 -6
v -3 14 -6
v 3 2 -6
v 3 3 -6
v 3 4 -6
v 3 5 -6
v 3 11 -6
v 3 12 -6
v 3 13 -6
v 3 14 -6
v 4 4 -6
v 4 5 -6
v 4 11 -6
v 4 12 -6
v -4 5 -7
v -4 11 -7
v -3 3 -7
v -3 5 -7
v -3 11 -7
v -3 13 -7
v 3 3 -7
v 3 5 -7
v 3 11 -7
v 3 13 -7
v 4 5 -7
v 4 11 -7
v -3 5 -8
v -3 11 -8
v 3 5 -8
v 3 11 -8
v -3 0 3
v 3 0 3
v -3 0 -3
v 3 0 -3
v -3 1 5
v 3 1 5
v -4 1 3
v -3 1 3
v 3 1 3
v 4 1 3
v -4 1 -3
v -3 1 -3
v 3 1 -3
v 4 1 -3
v -3 1 -5
v 3 1 -5
v -3 2 6
v 3 2 6
v -3 2 5
v 3 2 5
v -4 2 4
v -3 2 4
v 3 2 4
v 4 2 4
v -4 2 3
v -3 2 3
v 3 2 3
v 4 2 3
v -4 2 -3
v -3 2 -3
v 3 2 -3
v 4 2 -3
v -4 2 -4
v -3 2 -4
v 3 2 -4
v 4 2 -4
v -3 2 -5
v 3 2 -5
v -3 2 -6
v 3 2 -6
v -3 3 7
v 3 3 7
v -3 3 6
v 3 3 6
v -4 3 5
v -3 3 5
v 3 3 5
v 4 3 5
v -4 3 4
v -3 3 4
v 3 3 4
v 4 3 4
v -4 3 -4
v -3 3 -4
v 3 3 -4
v 4 3 -4
v -4 3 -5
v -3 3 -5
v 3 3 -5
v 4 3 -5
v -3 3 -6
v 3 3 -6
v -3 3 -7
v 3 3 -7
v -4 4 6
v -3 4 6
v 3 4 6
v 4 4 6
v -4 4 5
v -3 4 5
v 3 4 5
v 4 4 5
v -4 4 -5
v -3 4 -5
v 3 4 -5
v 4 4 -5
v -4 4 -6
v -3 4 -6
v 3 4 -6
v 4 4 -6
v -3 5 8
v 3 5 8
v -4 5 7
v -3 5 7
v 3 5 7
v 4 5 7
v -4 5 6
v -3 5 6
v 3 5 6
v 4 5 6
v -4 5 -6
v -3 5 -6
v 3 5 -6
v 4 5 -6
v -4 5 -7
v -3 5 -7
v 3 5 -7
v 4 5 -7
v -3 5 -8
v 3 5 -8
v -4 9 1
v -3 9 1
v -1 9 1
v 1 9 1
v -4 9 -1
v -3 9 -1
v -1 9 -1
v 1 9 -1
v 3 10 5
v 4 10 5
v 2 10 4
v 3 10 4
v 4 10 4
v 2 10 3
v 3 10 3
v 2 10 -3
v 3 10 -3
v 2 10 -4
v 3 10 -4
v 4 10 -4
v 3 10 -5
v 4 10 -5
v 2 11 3
v 3 11 3
v 2 11 2
v 3 11 2
v 2 11 -2
v 3 11 -2
v 2 11 -3
v 3 11 -3
v 3 12 4
v 4 12 4
v 2 12 2
v 3 12 2
v 4 12 2
v 2 12 -2
v 3 12 -2
v 4 12 -2
v 3 12 -4
v 4 12 -4
v 3 13 2
v 4 13 2
v 3 13 -2
v 4 13 -2
v 3 3 2
v 4 3 2
v 3 3 -2
v 4 3 -2
v 3 4 4
v 4 4 4
v 2 4 2
v 3 4 2
v 4 4 2
v 2 4 -2
v 3 4 -2
v 4 4 -2
v 3 4 -4
v 4 4 -4
v 2 5 3
v 3 5 3
v 2 5 2
v 3 5 2
v 2 5 -2
v 3 5 -2
v 2 5 -3
v 3 5 -3
v 3 6 5
v 4 6 5
v 2 6 4
v 3 6 4
v 4 6 4
v 2 6 3
v 3 6 3
v 2 6 -3
v 3 6 -3
v 2 6 -4
v 3 6 -4
v 4 6 -4
v 3 6 -5
v 4 6 -5
v -4 7 1
v -3 7 1
v -1 7 1
v 1 7 1
v -4 7 -1
v -3 7 -1
v -1 7 -1
v 1 7 -1
v -3 11 8
v 3 11 8
v -4 11 7
v -3 11 7
v 3 11 7
v 4 11 7
v -4 11 6
v -3 11 6
v 3 11 6
v 4 11 6
v -4 11 -6
v -3 11 -6
v 3 11 -6
v 4 11 -6
v -4 11 -7
v -3 11 -7
v 3 11 -7
v 4 11 -7
v -3 11 -8
v 3 11 -8
v -4 12 6
v -3 12 6
v 3 12 6
v 4 12 6
v -4 12 5
v -3 12 5
v 3 12 5
v 4 12 5
v -4 12 -5
v -3 12 -5
v 3 12 -5
v 4 12 -5
v -4 12 -6
v -3 12 -6
v 3 12 -6
v 4 12 -6
v -3 13 7
v 3 13 7
v -3 13 6
v 3 13 6
v -4 13 5
v -3 13 5
v 3 13 5
v 4 13 5
v -4 13 4
v -3 13 4
v 3 13 4
v 4 13 4
v -4 13 -4
v -3 13 -4
v 3 13 -4
v 4 13 -4
v -4 13 -5
v -3 13 -5
v 3 13 -5
v 4 13 -5
v -3 13 -6
v 3 13 -6
v -3 13 -7
v 3 13 -7
v -3 14 6
v 3 14 6
v -3 14 5
v 3 14 5
v -4 14 4
v -3 14 4
v 3 14 4
v 4 14 4
v -4 14 3
v -3 14 3
v 3 14 3
v 4 14 3
v -4 14 -3
v -3 14 -3
v 3 14 -3
v 4 14 -3
v -4 14 -4
v -3 14 -4
v 3 14 -4
v 4 14 -4
v -3 14 -5
v 3 14 -5
v -3 14 -6
v 3 14 -6
v -3 15 5
v 3 15 5
v -4 15 3
v -3 15 3
v 3 15 3
v 4 15 3
v -4 15 -3
v -3 15 -3
v 3 15 -3
v 4 15 -3
v -3 15 -5
v 3 15 -5
v -3 16 3
v 3 16 3
v -3 16 -3
v 3 16 -3

# faces
f 4/2/1 2/2/1 1/2/1
f 5/2/1 2/2/1 4/2/1
f 8/2/1 4/2/1 3/2/1
f 8/2/1 6/2/1 5/2/1
f 8/2/1 5/2/1 4/2/1
f 9/2/1 6/2/1 8/2/1
f 12/2/1 8/2/1 7/2/1
f 12/2/1 10/2/1 9/2/1
f 12/2/1 9/2/1 8/2/1
f 13/2/1 10/2/1 12/2/1
f 16/2/1 12/2/1 11/2/1
f 16/2/1 14/2/1 13/2/1
f 16/2/1 13/2/1 12/2/1
f 17/2/1 14/2/1 16/2/1
f 19/2/1 16/2/1 15/2/1
f 19/2/1 18/2/1 17/2/1
f 19/2/1 17/2/1 16/2/1
f 20/2/1 18/2/1 19/2/1
f 21/2/1 19/2/1 15/2/1
f 22/2/1 18/2/1 20/2/1
f 23/2/1 21/2/1 15/2/1
f 23/2/1 22/2/1 21/2/1
f 24/2/1 22/2/1 23/2/1
f 25/2/1 18/2/1 22/2/1
f 25/2/1 22/2/1 24/2/1
f 26/2/1 18/2/1 25/2/1
f 27/2/1 25/2/1 24/2/1
f 28/2/1 25/2/1 27/2/1
f 29/2/1 25/2/1 28/2/1
f 30/2/1 25/2/1 29/2/1
f 31/2/1 29/2/1 28/2/1
f 32/2/1 29/2/1 31/2/1
f 33/2/1 29/2/1 32/2/1
f 34/2/1 29/2/1 33/2/1
f 35/2/1 33/2/1 32/2/1
f 36/2/1 33/2/1 35/2/1
f 37/2/1 33/2/1 36/2/1
f 38/2/1 33/2/1 37/2/1
f 39/2/1 37/2/1 36/2/1
f 40/2/1 37/2/1 39/2/1
f 44/2/1 42/2/1 41/2/1
f 45/2/1 42/2/1 44/2/1
f 48/2/1 44/2/1 43/2/1
f 49/2/1 44/2/1 48/2/1
f 50/2/1 44/2/1 49/2/1
f 51/2/1 46/2/1 45/2/1
f 52/2/1 46/2/1 51/2/1
f 53/2/1 46/2/1 52/2/1
f 56/2/1 48/2/1 47/2/1
f 56/2/1 49/2/1 48/2/1
f 57/2/1 49/2/1 56/2/1
f 58/2/1 49/2/1 57/2/1
f 59/2/1 54/2/1 53/2/1
f 59/2/1 53/2/1 52/2/1
f 60/2/1 54/2/1 59/2/1
f 61/2/1 54/2/1 60/2/1
f 63/2/1 57/2/1 56/2/1
f 63/2/1 56/2/1 55/2/1
f 64/2/1 57/2/1 63/2/1
f 65/2/1 62/2/1 61/2/1
f 65/2/1 61/2/1 60/2/1
f 66/2/1 62/2/1 65/2/1
f 68/2/1 63/2/1 55/2/1
f 69/2/1 63/2/1 68/2/1
f 70/2/1 62/2/1 66/2/1
f 71/2/1 62/2/1 70/2/1
f 73/2/1 68/2/1 67/2/1
f 74/2/1 68/2/1 73/2/1
f 77/2/1 72/2/1 71/2/1
f 78/2/1 72/2/1 77/2/1
f 79/2/1 75/2/1 74/2/1
f 82/2/1 77/2/1 76/2/1
f 83/2/1 80/2/1 79/2/1
f 83/2/1 79/2/1 74/2/1
f 84/2/1 80/2/1 83/2/1
f 85/2/1 80/2/1 84/2/1
f 88/2/1 82/2/1 81/2/1
f 89/2/1 77/2/1 82/2/1
f 89/2/1 82/2/1 88/2/1
f 90/2/1 77/2/1 89/2/1
f 91/2/1 86/2/1 85/2/1
f 91/2/1 85/2/1 84/2/1
f 92/2/1 86/2/1 91/2/1
f 93/2/1 86/2/1 92/2/1
f 96/2/1 88/2/1 87/2/1
f 96/2/1 89/2/1 88/2/1
f 97/2/1 89/2/1 96/2/1
f 98/2/1 89/2/1 97/2/1
f 99/2/1 94/2/1 93/2/1
f 99/2/1 93/2/1 92/2/1
f 100/2/1 94/2/1 99/2/1
f 101/2/1 97/2/1 96/2/1
f 101/2/1 96/2/1 95/2/1
f 102/2/1 97/2/1 101/2/1
f 103/2/1 101/2/1 100/2/1
f 104/2/1 101/2/1 103/2/1
f 107/1/1 106/1/1 105/1/1
f 108/1/1 106/1/1 107/1/1
f 109/1/2 110/1/2 112/1/2
f 112/1/2 110/1/2 113/1/2
f 111/1/2 112/1/2 116/1/2
f 113/1/2 114/1/2 116/1/2
f 112/1/2 113/1/2 116/1/2
f 116/1/2 114/1/2 117/1/2
f 115/1/2 116/1/2 119/1/2
f 117/1/2 118/1/2 119/1/2
f 116/1/2 117/1/2 119/1/2
f 119/1/2 118/1/2 120/1/2
f 120/1/2 118/1/2 121/1/2
f 121/1/2 118/1/2 122/1/2
f 120/1/2 121/1/2 123/1/2
f 123/1/2 121/1/2 124/1/2
f 124/1/2 121/1/2 125/1/2
f 125/1/2 121/1/2 126/1/2
f 124/1/2 125/1/2 127/1/2
f 127/1/2 125/1/2 128/1/2
f 129/2/2 130/2/2 132/2/2
f 132/2/2 130/2/2 133/2/2
f 131/2/2 132/2/2 136/2/2
f 136/2/2 132/2/2 137/2/2
f 137/2/2 132/2/2 138/2/2
f 133/2/2 134/2/2 139/2/2
f 139/2/2 134/2/2 140/2/2
f 140/2/2 134/2/2 141/2/2
f 135/2/2 136/2/2 144/2/2
f 136/2/2 137/2/2 144/2/2
f 144/2/2 137/2/2 145/2/2
f 145/2/2 137/2/2 146/2/2
f 141/2/2 142/2/2 149/2/2
f 140/2/2 141/2/2 149/2/2
f 149/2/2 142/2/2 150/2/2
f 150/2/2 142/2/2 151/2/2
f 143/2/2 144/2/2 153/2/2
f 144/2/2 145/2/2 153/2/2
f 153/2/2 145/2/2 154/2/2
f 147/1/2 148/1/2 156/1/2
f 156/1/2 148/1/2 157/1/2
f 151/2/2 152/2/2 159/2/2
f 150/2/2 151/2/2 159/2/2
f 159/2/2 152/2/2 160/2/2
f 143/2/2 153/2/2 162/2/2
f 162/2/2 153/2/2 163/2/2
f 155/1/2 156/1/2 164/1/2
f 164/1/2 156/1/2 165/1/2
f 157/1/2 158/1/2 166/1/2
f 166/1/2 158/1/2 167/1/2
f 160/2/2 152/2/2 168/2/2
f 168/2/2 152/2/2 169/2/2
f 155/1/2 164/1/2 172/1/2
f 172/1/2 164/1/2 173/1/2
f 167/1/2 158/1/2 174/1/2
f 174/1/2 158/1/2 175/1/2
f 171/1/2 172/1/2 177/1/2
f 177/1/2 172/1/2 178/1/2
f 175/1/2 176/1/2 181/1/2
f 181/1/2 176/1/2 182/1/2
f 161/2/2 162/2/2 183/2/2
f 183/2/2 162/2/2 184/2/2
f 178/1/2 179/1/2 186/1/2
f 180/1/2 181/1/2 189/1/2
f 169/2/2 170/2/2 191/2/2
f 191/2/2 170/2/2 192/2/2
f 184/2/2 185/2/2 193/2/2
f 186/1/2 187/1/2 195/1/2
f 178/1/2 186/1/2 195/1/2
f 195/1/2 187/1/2 196/1/2
f 188/1/2 189/1/2 197/1/2
f 189/1/2 181/1/2 198/1/2
f 197/1/2 189/1/2 198/1/2
f 190/2/2 191/2/2 200/2/2
f 193/2/2 194/2/2 201/2/2
f 184/2/2 193/2/2 201/2/2
f 201/2/2 194/2/2 202/2/2
f 202/2/2 194/2/2 203/2/2
f 196/1/2 197/1/2 205/1/2
f 205/1/2 197/1/2 206/1/2
f 199/2/2 200/2/2 208/2/2
f 200/2/2 191/2/2 209/2/2
f 208/2/2 200/2/2 209/2/2
f 209/2/2 191/2/2 210/2/2
f 203/2/2 204/2/2 211/2/2
f 202/2/2 203/2/2 211/2/2
f 211/2/2 204/2/2 212/2/2
f 212/2/2 204/2/2 213/2/2
f 208/2/2 209/2/2 216/2/2
f 207/2/2 208/2/2 216/2/2
f 216/2/2 209/2/2 217/2/2
f 217/2/2 209/2/2 218/2/2
f 213/2/2 214/2/2 219/2/2
f 212/2/2 213/2/2 219/2/2
f 219/2/2 214/2/2 220/2/2
f 216/2/2 217/2/2 221/2/2
f 215/2/2 216/2/2 221/2/2
f 221/2/2 217/2/2 222/2/2
f 220/2/2 221/2/2 223/2/2
f 223/2/2 221/2/2 224/2/2
f 225/2/2 226/2/2 228/2/2
f 228/2/2 226/2/2 229/2/2
f 229/2/2 226/2/2 230/2/2
f 230/2/2 226/2/2 231/2/2
f 227/2/2 228/2/2 234/2/2
f 228/2/2 229/2/2 234/2/2
f 229/1/2 230/1/2 235/1/2
f 234/2/2 229/2/2 235/2/2
f 231/2/2 232/2/2 236/2/2
f 235/1/2 230/1/2 236/1/2
f 230/2/2 231/2/2 236/2/2
f 236/2/2 232/2/2 237/2/2
f 233/2/2 234/2/2 240/2/2
f 234/1/2 235/1/2 241/1/2
f 240/2/2 234/2/2 241/2/2
f 241/1/2 235/1/2 242/1/2
f 236/1/2 237/1/2 243/1/2
f 237/2/2 238/2/2 244/2/2
f 243/1/2 237/1/2 244/1/2
f 244/2/2 238/2/2 245/2/2
f 239/2/2 240/2/2 248/2/2
f 245/2/2 246/2/2 249/2/2
f 247/2/2 248/2/2 251/2/2
f 248/2/2 240/2/2 251/2/2
f 240/1/2 241/1/2 252/1/2
f 251/2/2 240/2/2 252/2/2
f 252/1/2 241/1/2 253/1/2
f 244/1/2 245/1/2 254/1/2
f 249/2/2 250/2/2 255/2/2
f 254/1/2 245/1/2 255/1/2
f 245/2/2 249/2/2 255/2/2
f 255/2/2 250/2/2 256/2/2
f 247/2/2 251/2/2 257/2/2
f 251/1/2 252/1/2 257/1/2
f 257/1/2 252/1/2 258/1/2
f 255/1/2 256/1/2 261/1/2
f 256/2/2 250/2/2 262/2/2
f 261/1/2 256/1/2 262/1/2
f 247/2/2 257/2/2 263/2/2
f 257/2/2 258/2/2 263/2/2
f 263/2/2 258/2/2 264/2/2
f 262/2/2 250/2/2 265/2/2
f 261/2/2 262/2/2 265/2/2
f 265/2/2 250/2/2 266/2/2
f 264/2/2 258/2/2 267/2/2
f 258/1/2 259/1/2 268/1/2
f 267/2/2 258/2/2 268/2/2
f 268/1/2 259/1/2 269/1/2
f 260/1/2 261/1/2 272/1/2
f 261/2/2 265/2/2 273/2/2
f 272/1/2 261/1/2 273/1/2
f 273/2/2 265/2/2 274/2/2
f 268/2/2 269/2/2 275/2/2
f 269/1/2 270/1/2 276/1/2
f 275/2/2 269/2/2 276/2/2
f 276/1/2 270/1/2 277/1/2
f 271/1/2 272/1/2 278/1/2
f 272/2/2 273/2/2 279/2/2
f 278/1/2 272/1/2 279/1/2
f 279/2/2 273/2/2 280/2/2
f 276/2/2 277/2/2 281/2/2
f 281/2/2 277/2/2 282/2/2
f 277/1/2 278/1/2 283/1/2
f 282/2/2 277/2/2 283/2/2
f 278/2/2 279/2/2 284/2/2
f 283/1/2 278/1/2 284/1/2
f 284/2/2 279/2/2 285/2/2
f 285/2/2 279/2/2 286/2/2
f 282/2/2 283/2/2 287/2/2
f 284/2/2 285/2/2 287/2/2
f 283/2/2 284/2/2 287/2/2
f 287/2/2 285/2/2 288/2/2
f 291/2/3 290/2/3 289/2/3
f 292/2/3 290/2/3 291/2/3
f 296/2/3 294/2/3 293/2/3
f 297/2/3 294/2/3 296/2/3
f 299/2/3 296/2/3 295/2/3
f 300/2/3 296/2/3 299/2/3
f 301/2/3 298/2/3 297/2/3
f 302/2/3 298/2/3 301/2/3
f 303/2/3 301/2/3 300/2/3
f 304/2/3 301/2/3 303/2/3
f 311/2/3 306/2/3 305/2/3
f 312/2/3 306/2/3 311/2/3
f 313/2/3 308/2/3 307/2/3
f 314/2/3 308/2/3 313/2/3
f 317/2/3 310/2/3 309/2/3
f 318/2/3 310/2/3 317/2/3
f 323/2/3 316/2/3 315/2/3
f 324/2/3 316/2/3 323/2/3
f 325/2/3 320/2/3 319/2/3
f 326/2/3 320/2/3 325/2/3
f 327/2/3 322/2/3 321/2/3
f 328/2/3 322/2/3 327/2/3
f 335/2/3 330/2/3 329/2/3
f 336/2/3 330/2/3 335/2/3
f 337/2/3 332/2/3 331/2/3
f 338/2/3 332/2/3 337/2/3
f 341/2/3 334/2/3 333/2/3
f 342/2/3 334/2/3 341/2/3
f 347/2/3 340/2/3 339/2/3
f 348/2/3 340/2/3 347/2/3
f 349/2/3 344/2/3 343/2/3
f 350/2/3 344/2/3 349/2/3
f 351/2/3 346/2/3 345/2/3
f 352/2/3 346/2/3 351/2/3
f 357/2/3 354/2/3 353/2/3
f 358/2/3 354/2/3 357/2/3
f 359/2/3 356/2/3 355/2/3
f 360/2/3 356/2/3 359/2/3
f 365/2/3 362/2/3 361/2/3
f 366/2/3 362/2/3 365/2/3
f 367/2/3 364/2/3 363/2/3
f 368/2/3 364/2/3 367/2/3
f 374/2/3 370/2/3 369/2/3
f 375/2/3 370/2/3 374/2/3
f 376/2/3 372/2/3 371/2/3
f 377/2/3 372/2/3 376/2/3
f 379/2/3 374/2/3 373/2/3
f 380/2/3 374/2/3 379/2/3
f 383/2/3 378/2/3 377/2/3
f 384/2/3 378/2/3 383/2/3
f 385/2/3 381/2/3 380/2/3
f 386/2/3 381/2/3 385/2/3
f 387/2/3 383/2/3 382/2/3
f 388/2/3 383/2/3 387/2/3
f 391/2/3 390/2/3 389/2/3
f 392/2/3 390/2/3 391/2/3
f 393/1/3 392/1/3 391/1/3
f 394/1/3 392/1/3 393/1/3
f 395/2/3 394/2/3 393/2/3
f 396/2/3 394/2/3 395/2/3
f 402/1/3 398/1/3 397/1/3
f 403/1/3 398/1/3 402/1/3
f 404/1/3 400/1/3 399/1/3
f 405/1/3 400/1/3 404/1/3
f 407/1/3 402/1/3 401/1/3
f 408/1/3 402/1/3 407/1/3
f 409/1/3 406/1/3 405/1/3
f 410/1/3 406/1/3 409/1/3
f 415/1/3 412/1/3 411/1/3
f 416/1/3 412/1/3 415/1/3
f 417/1/3 414/1/3 413/1/3
f 418/1/3 414/1/3 417/1/3
f 422/1/3 420/1/3 419/1/3
f 423/1/3 420/1/3 422/1/3
f 425/1/3 422/1/3 421/1/3
f 426/1/3 422/1/3 425/1/3
f 427/1/3 424/1/3 423/1/3
f 428/1/3 424/1/3 427/1/3
f 431/1/3 430/1/3 429/1/3
f 432/1/3 430/1/3 431/1/3
f 433/1/4 434/1/4 435/1/4
f 435/1/4 434/1/4 436/1/4
f 437/1/4 438/1/4 440/1/4
f 440/1/4 438/1/4 441/1/4
f 439/1/4 440/1/4 443/1/4
f 443/1/4 440/1/4 444/1/4
f 441/1/4 442/1/4 445/1/4
f 445/1/4 442/1/4 446/1/4
f 447/1/4 448/1/4 451/1/4
f 451/1/4 448/1/4 452/1/4
f 449/1/4 450/1/4 453/1/4
f 453/1/4 450/1/4 454/1/4
f 455/1/4 456/1/4 460/1/4
f 460/1/4 456/1/4 461/1/4
f 457/1/4 458/1/4 462/1/4
f 462/1/4 458/1/4 463/1/4
f 459/1/4 460/1/4 465/1/4
f 465/1/4 460/1/4 466/1/4
f 463/1/4 464/1/4 467/1/4
f 467/1/4 464/1/4 468/1/4
f 469/2/4 470/2/4 471/2/4
f 471/2/4 470/2/4 472/2/4
f 471/1/4 472/1/4 473/1/4
f 473/1/4 472/1/4 474/1/4
f 473/2/4 474/2/4 475/2/4
f 475/2/4 474/2/4 476/2/4
f 477/2/4 478/2/4 482/2/4
f 482/2/4 478/2/4 483/2/4
f 479/2/4 480/2/4 484/2/4
f 484/2/4 480/2/4 485/2/4
f 481/2/4 482/2/4 487/2/4
f 487/2/4 482/2/4 488/2/4
f 485/2/4 486/2/4 491/2/4
f 491/2/4 486/2/4 492/2/4
f 488/2/4 489/2/4 493/2/4
f 493/2/4 489/2/4 494/2/4
f 490/2/4 491/2/4 495/2/4
f 495/2/4 491/2/4 496/2/4
f 497/2/4 498/2/4 501/2/4
f 501/2/4 498/2/4 502/2/4
f 499/2/4 500/2/4 503/2/4
f 503/2/4 500/2/4 504/2/4
f 505/2/4 506/2/4 509/2/4
f 509/2/4 506/2/4 510/2/4
f 507/2/4 508/2/4 511/2/4
f 511/2/4 508/2/4 512/2/4
f 513/2/4 514/2/4 519/2/4
f 519/2/4 514/2/4 520/2/4
f 515/2/4 516/2/4 521/2/4
f 521/2/4 516/2/4 522/2/4
f 517/2/4 518/2/4 525/2/4
f 525/2/4 518/2/4 526/2/4
f 523/2/4 524/2/4 531/2/4
f 531/2/4 524/2/4 532/2/4
f 527/2/4 528/2/4 533/2/4
f 533/2/4 528/2/4 534/2/4
f 529/2/4 530/2/4 535/2/4
f 535/2/4 530/2/4 536/2/4
f 537/2/4 538/2/4 543/2/4
f 543/2/4 538/2/4 544/2/4
f 539/2/4 540/2/4 545/2/4
f 545/2/4 540/2/4 546/2/4
f 541/2/4 542/2/4 549/2/4
f 549/2/4 542/2/4 550/2/4
f 547/2/4 548/2/4 555/2/4
f 555/2/4 548/2/4 556/2/4
f 551/2/4 552/2/4 557/2/4
f 557/2/4 552/2/4 558/2/4
f 553/2/4 554/2/4 559/2/4
f 559/2/4 554/2/4 560/2/4
f 561/2/4 562/2/4 564/2/4
f 564/2/4 562/2/4 565/2/4
f 563/2/4 564/2/4 567/2/4
f 567/2/4 564/2/4 568/2/4
f 565/2/4 566/2/4 569/2/4
f 569/2/4 566/2/4 570/2/4
f 568/2/4 569/2/4 571/2/4
f 571/2/4 569/2/4 572/2/4
f 573/2/4 574/2/4 575/2/4
f 575/2/4 574/2/4 576/2/4
f 579/2/5 578/2/5 577/2/5
f 580/2/5 578/2/5 579/2/5
f 584/2/5 582/2/5 581/2/5
f 585/2/5 582/2/5 584/2/5
f 587/2/5 584/2/5 583/2/5
f 588/2/5 584/2/5 587/2/5
f 589/2/5 586/2/5 585/2/5
f 590/2/5 586/2/5 589/2/5
f 591/2/5 589/2/5 588/2/5
f 592/2/5 589/2/5 591/2/5
f 595/2/5 594/2/5 593/2/5
f 596/2/5 594/2/5 595/2/5
f 601/2/5 598/2/5 597/2/5
f 602/2/5 598/2/5 601/2/5
f 603/2/5 600/2/5 599/2/5
f 604/2/5 600/2/5 603/2/5
f 609/2/5 606/2/5 605/2/5
f 610/2/5 606/2/5 609/2/5
f 611/2/5 608/2/5 607/2/5
f 612/2/5 608/2/5 611/2/5
f 615/2/5 614/2/5 613/2/5
f 616/2/5 614/2/5 615/2/5
f 619/2/5 618/2/5 617/2/5
f 620/2/5 618/2/5 619/2/5
f 625/2/5 622/2/5 621/2/5
f 626/2/5 622/2/5 625/2/5
f 627/2/5 624/2/5 623/2/5
f 628/2/5 624/2/5 627/2/5
f 633/2/5 630/2/5 629/2/5
f 634/2/5 630/2/5 633/2/5
f 635/2/5 632/2/5 631/2/5
f 636/2/5 632/2/5 635/2/5
f 639/2/5 638/2/5 637/2/5
f 640/2/5 638/2/5 639/2/5
f 645/2/5 642/2/5 641/2/5
f 646/2/5 642/2/5 645/2/5
f 647/2/5 644/2/5 643/2/5
f 648/2/5 644/2/5 647/2/5
f 653/2/5 650/2/5 649/2/5
f 654/2/5 650/2/5 653/2/5
f 655/2/5 652/2/5 651/2/5
f 656/2/5 652/2/5 655/2/5
f 660/2/5 658/2/5 657/2/5
f 661/2/5 658/2/5 660/2/5
f 663/2/5 660/2/5 659/2/5
f 664/2/5 660/2/5 663/2/5
f 665/2/5 662/2/5 661/2/5
f 666/2/5 662/2/5 665/2/5
f 671/2/5 668/2/5 667/2/5
f 672/2/5 668/2/5 671/2/5
f 673/2/5 670/2/5 669/2/5
f 674/2/5 670/2/5 673/2/5
f 675/2/5 673/2/5 672/2/5
f 676/2/5 673/2/5 675/2/5
f 681/2/5 678/2/5 677/2/5
f 682/1/5 679/1/5 678/1/5
f 682/2/5 678/2/5 681/2/5
f 683/2/5 680/2/5 679/2/5
f 683/1/5 679/1/5 682/1/5
f 684/2/5 680/2/5 683/2/5
f 688/1/5 686/1/5 685/1/5
f 689/1/5 686/1/5 688/1/5
f 690/1/5 688/1/5 687/1/5
f 691/1/5 688/1/5 690/1/5
f 694/1/5 693/1/5 692/1/5
f 695/1/5 693/1/5 694/1/5
f 697/1/5 696/1/5 695/1/5
f 698/1/5 696/1/5 697/1/5
f 701/1/5 700/1/5 699/1/5
f 702/1/5 700/1/5 701/1/5
f 705/1/5 704/1/5 703/1/5
f 706/1/5 704/1/5 705/1/5
f 710/1/5 708/1/5 707/1/5
f 711/1/5 708/1/5 710/1/5
f 712/1/5 710/1/5 709/1/5
f 713/1/5 710/1/5 712/1/5
f 715/1/5 714/1/5 713/1/5
f 716/1/5 714/1/5 715/1/5
f 719/1/5 718/1/5 717/1/5
f 720/1/5 718/1/5 719/1/5
f 721/1/6 722/1/6 723/1/6
f 723/1/6 722/1/6 724/1/6
f 725/1/6 726/1/6 728/1/6
f 728/1/6 726/1/6 729/1/6
f 727/1/6 728/1/6 730/1/6
f 730/1/6 728/1/6 731/1/6
f 731/1/6 732/1/6 733/1/6
f 733/1/6 732/1/6 734/1/6
f 735/1/6 736/1/6 737/1/6
f 737/1/6 736/1/6 738/1/6
f 739/1/6 740/1/6 741/1/6
f 741/1/6 740/1/6 742/1/6
f 743/1/6 744/1/6 746/1/6
f 746/1/6 744/1/6 747/1/6
f 745/1/6 746/1/6 748/1/6
f 748/1/6 746/1/6 749/1/6
f 750/1/6 751/1/6 752/1/6
f 752/1/6 751/1/6 753/1/6
f 753/1/6 754/1/6 755/1/6
f 755/1/6 754/1/6 756/1/6
f 757/2/6 758/2/6 761/2/6
f 758/1/6 759/1/6 762/1/6
f 761/2/6 758/2/6 762/2/6
f 759/2/6 760/2/6 763/2/6
f 762/1/6 759/1/6 763/1/6
f 763/2/6 760/2/6 764/2/6
f 765/2/6 766/2/6 768/2/6
f 768/2/6 766/2/6 769/2/6
f 767/2/6 768/2/6 771/2/6
f 771/2/6 768/2/6 772/2/6
f 769/2/6 770/2/6 773/2/6
f 773/2/6 770/2/6 774/2/6
f 775/2/6 776/2/6 779/2/6
f 779/2/6 776/2/6 780/2/6
f 777/2/6 778/2/6 781/2/6
f 781/2/6 778/2/6 782/2/6
f 780/2/6 781/2/6 783/2/6
f 783/2/6 781/2/6 784/2/6
f 785/2/6 786/2/6 789/2/6
f 789/2/6 786/2/6 790/2/6
f 787/2/6 788/2/6 791/2/6
f 791/2/6 788/2/6 792/2/6
f 793/2/6 794/2/6 797/2/6
f 797/2/6 794/2/6 798/2/6
f 795/2/6 796/2/6 799/2/6
f 799/2/6 796/2/6 800/2/6
f 801/2/6 802/2/6 803/2/6
f 803/2/6 802/2/6 804/2/6
f 805/2/6 806/2/6 809/2/6
f 809/2/6 806/2/6 810/2/6
f 807/2/6 808/2/6 811/2/6
f 811/2/6 808/2/6 812/2/6
f 813/2/6 814/2/6 817/2/6
f 817/2/6 814/2/6 818/2/6
f 815/2/6 816/2/6 819/2/6
f 819/2/6 816/2/6 820/2/6
f 821/2/6 822/2/6 823/2/6
f 823/2/6 822/2/6 824/2/6
f 825/2/6 826/2/6 827/2/6
f 827/2/6 826/2/6 828/2/6
f 829/2/6 830/2/6 833/2/6
f 833/2/6 830/2/6 834/2/6
f 831/2/6 832/2/6 835/2/6
f 835/2/6 832/2/6 836/2/6
f 837/2/6 838/2/6 841/2/6
f 841/2/6 838/2/6 842/2/6
f 839/2/6 840/2/6 843/2/6
f 843/2/6 840/2/6 844/2/6
f 845/2/6 846/2/6 847/2/6
f 847/2/6 846/2/6 848/2/6
f 849/2/6 850/2/6 852/2/6
f 852/2/6 850/2/6 853/2/6
f 851/2/6 852/2/6 855/2/6
f 855/2/6 852/2/6 856/2/6
f 853/2/6 854/2/6 857/2/6
f 857/2/6 854/2/6 858/2/6
f 856/2/6 857/2/6 859/2/6
f 859/2/6 857/2/6 860/2/6
f 861/2/6 862/2/6 863/2/6
f 863/2/6 862/2/6 864/2/6
